<svg width="25" height="45" viewBox="0 0 25 45" fill="none" xmlns="http://www.w3.org/2000/svg">
<path d="M0 23.3193L12.4936 30.539L25 23.3193L12.4936 16.0996L0 23.3193Z" fill="url(#paint0_linear_35_1230)"/>
<path d="M0 37.5426L12.4936 44.7459L25 37.5426V23.3193L12.4936 30.5391L0 23.3193V37.5426Z" fill="url(#paint1_linear_35_1230)"/>
<path d="M1.8476 23.3197L12.4936 29.4597L23.1523 23.3197L12.4936 17.1621L1.8476 23.3197Z" fill="url(#paint2_linear_35_1230)"/>
<path d="M17.0312 21.7925L16.7672 21.942L11.7395 19.0373L12.0161 18.8877L17.0312 21.7925Z" fill="#00E721"/>
<path d="M19.3816 23.8331L19.105 23.9827L11.1488 19.3849L11.4127 19.2354L19.3816 23.8331Z" fill="#00E721"/>
<path d="M18.7908 24.1654L18.5269 24.3313L13.3232 21.3273L13.6123 21.1777L18.7908 24.1654Z" fill="#00E721"/>
<path d="M18.1749 24.5314L17.911 24.6809L9.9422 20.0832L10.2061 19.9336L18.1749 24.5314Z" fill="#00E721"/>
<path d="M17.5716 24.879L17.3077 25.0286L14.8818 23.6347L15.1584 23.4688L17.5716 24.879Z" fill="#00E721"/>
<path d="M16.9935 25.211L16.717 25.377L8.74805 20.7791L9.02468 20.6133L16.9935 25.211Z" fill="#00E721"/>
<path d="M16.4028 25.5599L16.1261 25.7257L11.5134 23.0536L11.7899 22.9053L16.4028 25.5599Z" fill="#00E721"/>
<path d="M19.9849 23.4857L19.6959 23.6353L17.2825 22.2401L17.5464 22.0742L19.9849 23.4857Z" fill="#00E721"/>
<path d="M14.6431 23.1697L14.379 23.3355L9.33893 20.4308L9.62799 20.2812L14.6431 23.1697Z" fill="#00E721"/>
<path d="M13.0971 20.8796L12.8079 21.0279L10.5455 19.717L10.8094 19.5674L13.0971 20.8796Z" fill="#00E721"/>
<path d="M20.5631 23.1356L20.2992 23.3015L12.3304 18.705L12.5943 18.5391L20.5631 23.1356Z" fill="#00E721"/>
<path d="M15.8496 25.8752L15.5731 26.0411L7.60437 21.4445L7.88085 21.2773L15.8496 25.8752Z" fill="#00E721"/>
<path d="M11.8024 24.8459L11.5385 25.0131L6.51086 22.1083L6.78735 21.9424L11.8024 24.8459Z" fill="#00E721"/>
<path d="M14.1528 26.8878L13.8763 27.0537L5.91998 22.456L6.19662 22.29L14.1528 26.8878Z" fill="#00E721"/>
<path d="M13.5621 27.2365L13.2981 27.4024L8.09442 24.3984L8.38364 24.2324L13.5621 27.2365Z" fill="#00E721"/>
<path d="M12.9463 27.6004L12.6822 27.75L4.71344 23.1535L4.97734 23.0039L12.9463 27.6004Z" fill="#00E721"/>
<path d="M14.7562 26.5385L14.4671 26.7043L12.0538 25.3105L12.3178 25.1445L14.7562 26.5385Z" fill="#00E721"/>
<path d="M9.41424 26.2407L9.15034 26.4066L4.11011 23.5019L4.39917 23.3359L9.41424 26.2407Z" fill="#00E721"/>
<path d="M7.86828 23.9494L7.57921 24.0989L5.31671 22.788L5.58061 22.6221L7.86828 23.9494Z" fill="#00E721"/>
<path d="M15.3342 26.2069L15.0703 26.3565L7.10156 21.7586L7.36546 21.6104L15.3342 26.2069Z" fill="#00E721"/>
<path d="M12.4937 30.5391V44.7459L25 37.5426V23.3193L12.4937 30.5391Z" fill="url(#paint3_linear_35_1230)"/>
<path d="M23.0142 32.2148V32.5466L14.907 37.2274V36.9119L23.0142 32.2148Z" fill="#606060"/>
<path d="M23.0141 30.1729V30.4884L20.5505 31.9162V31.6008L23.0141 30.1729Z" fill="#606060"/>
<path d="M23.0392 31.5674V31.8829L18.3257 34.6053V34.2899L23.0392 31.5674Z" fill="#606060"/>
<path d="M23.0141 27.3516V27.6671L20.5505 29.1113V28.7794L23.0141 27.3516Z" fill="#606060"/>
<path d="M23.0141 28.7471V29.0789L17.7224 32.132V31.8001L23.0141 28.7471Z" fill="#606060"/>
<path d="M23.0142 30.8711V31.1866L14.907 35.8837V35.5506L23.0142 30.8711Z" fill="#00E721"/>
<path d="M20.0351 31.8994V32.2324L14.907 35.1862V34.8544L20.0351 31.8994Z" fill="#606060"/>
<path d="M23.0142 29.4775V29.7918L14.907 34.4888V34.157L23.0142 29.4775Z" fill="#00E721"/>
<path d="M17.207 32.0996V32.4314L14.8818 33.7587V33.4432L17.207 32.0996Z" fill="#606060"/>
<path d="M23.0142 28.0488V28.3644L14.907 33.0614V32.7296L23.0142 28.0488Z" fill="#606060"/>
<path d="M20.0101 29.0791V29.4109L14.907 32.3647V32.0328L20.0101 29.0791Z" fill="#00E721"/>
<path d="M23.0266 26.6553V26.9708L14.907 31.6679V31.3361L23.0266 26.6553Z" fill="#606060"/>
<path d="M17.9865 28.8955L18.0115 29.2286L14.8818 31.0209V30.6891L17.9865 28.8955Z" fill="#606060"/>
<path d="M22.989 26.0244V26.3562L18.5269 28.9291V28.5973L22.989 26.0244Z" fill="#606060"/>
<path d="M23.1021 34.3223V34.6377L20.626 36.0656V35.7501L23.1021 34.3223Z" fill="#606060"/>
<path d="M23.102 35.7178V36.032L17.8105 39.0863V38.7708L23.102 35.7178Z" fill="#00E721"/>
<path d="M23.102 36.4307V36.7638L14.9824 41.4432V41.1277L23.102 36.4307Z" fill="#00E721"/>
<path d="M17.2951 39.0703V39.3858L14.9698 40.7294V40.4152L17.2951 39.0703Z" fill="#606060"/>
<path d="M23.102 35.0205V35.336L14.9824 40.033V39.7012L23.102 35.0205Z" fill="#606060"/>
<path d="M20.098 36.0498V36.3653L14.9824 39.319V39.0035L20.098 36.0498Z" fill="#606060"/>
<path d="M23.102 33.6094V33.9412L14.9824 38.6207V38.3065L23.102 33.6094Z" fill="#00E721"/>
<path d="M18.0744 35.8662L18.087 36.1993L14.9698 37.9917V37.6598L18.0744 35.8662Z" fill="#00E721"/>
<path d="M23.0643 32.9951V33.3106L18.6024 35.8835V35.568L23.0643 32.9951Z" fill="#00E721"/>
<path d="M1.89795 32.3154V32.6309L10.005 37.3104L10.0301 36.9949L1.89795 32.3154Z" fill="#606060"/>
<path d="M1.89795 30.2568V30.5886L4.36145 32.0165L4.38661 31.6847L1.89795 30.2568Z" fill="#606060"/>
<path d="M1.89795 31.6514V31.9832L6.58621 34.6881V34.3726L1.89795 31.6514Z" fill="#606060"/>
<path d="M1.91052 27.4346V27.7676L4.3866 29.1942V28.8624L1.91052 27.4346Z" fill="#606060"/>
<path d="M1.91053 28.8301L1.89795 29.1619L7.1895 32.2149V31.9007L1.91053 28.8301Z" fill="#606060"/>
<path d="M1.89795 30.9541V31.2859L10.005 35.9666V35.6512L1.89795 30.9541Z" fill="#00E721"/>
<path d="M4.90198 32V32.3155L10.005 35.2692V34.9538L4.90198 32Z" fill="#606060"/>
<path d="M1.89795 29.5605V29.8923L10.0301 34.5731V34.2576L1.89795 29.5605Z" fill="#606060"/>
<path d="M7.71747 32.1982V32.5137L10.0427 33.8586V33.5268L7.71747 32.1982Z" fill="#606060"/>
<path d="M1.91052 28.1318V28.4636L10.0301 33.1444V32.8289L1.91052 28.1318Z" fill="#606060"/>
<path d="M4.90198 29.1777V29.4933L10.0301 32.447V32.1315L4.90198 29.1777Z" fill="#00E721"/>
<path d="M1.91052 26.7383V27.0701L10.0301 31.7508V31.4354L1.91052 26.7383Z" fill="#00E721"/>
<path d="M6.9256 28.9951V29.3106L10.0301 31.103V30.7875L6.9256 28.9951Z" fill="#606060"/>
<path d="M1.9483 26.124V26.4395L6.38509 29.0124V28.6969L1.9483 26.124Z" fill="#606060"/>
<path d="M1.82245 34.4053V34.7208L4.29868 36.165V35.8331L1.82245 34.4053Z" fill="#606060"/>
<path d="M1.82246 35.8008L1.80988 36.1327L7.10158 39.1857V38.8538L1.82246 35.8008Z" fill="#00E721"/>
<path d="M1.80988 36.5312V36.8467L9.94221 41.5426V41.2107L1.80988 36.5312Z" fill="#606060"/>
<path d="M7.62939 39.1523V39.4841L9.9548 40.829V40.4972L7.62939 39.1523Z" fill="#606060"/>
<path d="M1.82245 35.1025V35.4344L9.94221 40.1152V39.7996L1.82245 35.1025Z" fill="#606060"/>
<path d="M4.8139 36.1328V36.4646L9.9422 39.4184V39.0865L4.8139 36.1328Z" fill="#00E721"/>
<path d="M1.82245 33.709V34.0245L9.94221 38.7216V38.3898L1.82245 33.709Z" fill="#606060"/>
<path d="M6.83752 35.9668V36.2823L9.94221 38.0746V37.7592L6.83752 35.9668Z" fill="#606060"/>
<path d="M1.86023 33.0781V33.4099L6.30975 35.9828V35.651L1.86023 33.0781Z" fill="#00E721"/>
<path d="M0 7.21973L12.4936 14.4394L25 7.21973L12.4936 0L0 7.21973Z" fill="url(#paint4_linear_35_1230)"/>
<path d="M0 21.4441L12.4936 28.6463L25 21.4441V7.21973L12.4936 14.4394L0 7.21973V21.4441Z" fill="url(#paint5_linear_35_1230)"/>
<path d="M1.8476 7.22017L12.4936 13.3614L23.1523 7.22017L12.4936 1.0625L1.8476 7.22017Z" fill="url(#paint6_linear_35_1230)"/>
<path d="M17.0312 5.69278L16.7672 5.84237L11.7395 2.93761L12.0161 2.78809L17.0312 5.69278Z" fill="#00E721"/>
<path d="M19.3816 7.73428L19.105 7.8838L11.1488 3.28729L11.4127 3.1377L19.3816 7.73428Z" fill="#00E721"/>
<path d="M18.7908 8.0668L18.5269 8.23266L13.3232 5.22739L13.6123 5.0791L18.7908 8.0668Z" fill="#00E721"/>
<path d="M18.1749 8.43179L17.911 8.58139L9.9422 3.98358L10.2061 3.83398L18.1749 8.43179Z" fill="#00E721"/>
<path d="M17.5716 8.77941L17.3077 8.929L14.8818 7.53508L15.1584 7.36914L17.5716 8.77941Z" fill="#00E721"/>
<path d="M16.9935 9.11123L16.717 9.27709L8.74805 4.68058L9.02468 4.51465L16.9935 9.11123Z" fill="#00E721"/>
<path d="M16.4028 9.46051L16.1261 9.62645L11.5134 6.95428L11.7899 6.80469L16.4028 9.46051Z" fill="#00E721"/>
<path d="M19.9849 7.38578L19.6959 7.53537L17.2825 6.14145L17.5464 5.97559L19.9849 7.38578Z" fill="#00E721"/>
<path d="M14.6431 7.07072L14.379 7.23665L9.33893 4.33189L9.62799 4.18359L14.6431 7.07072Z" fill="#00E721"/>
<path d="M13.0971 4.77967L12.8079 4.92927L10.5455 3.61835L10.8094 3.46875L13.0971 4.77967Z" fill="#00E721"/>
<path d="M20.5631 7.03726L20.2992 7.2032L12.3304 2.60539L12.5943 2.43945L20.5631 7.03726Z" fill="#00E721"/>
<path d="M15.8496 9.77652L15.5731 9.94238L7.60437 5.34465L7.88085 5.17871L15.8496 9.77652Z" fill="#00E721"/>
<path d="M11.8024 8.74649L11.5385 8.91242L6.51086 6.00773L6.78735 5.8418L11.8024 8.74649Z" fill="#00E721"/>
<path d="M14.1528 10.7882L13.8763 10.9542L5.91998 6.35637L6.19662 6.19043L14.1528 10.7882Z" fill="#00E721"/>
<path d="M13.5621 11.1359L13.2981 11.3018L8.09442 8.29777L8.38364 8.13184L13.5621 11.1359Z" fill="#00E721"/>
<path d="M12.9463 11.5021L12.6822 11.6517L4.71344 7.05389L4.97734 6.9043L12.9463 11.5021Z" fill="#00E721"/>
<path d="M14.7562 10.4398L14.4671 10.6057L12.0538 9.21176L12.3178 9.0459L14.7562 10.4398Z" fill="#00E721"/>
<path d="M9.41424 10.141L9.15034 10.307L4.11011 7.40219L4.39917 7.23633L9.41424 10.141Z" fill="#00E721"/>
<path d="M7.86828 7.85095L7.57921 8.00054L5.31671 6.68962L5.58061 6.52246L7.86828 7.85095Z" fill="#00E721"/>
<path d="M15.3342 10.1086L15.0703 10.2581L7.10156 5.66034L7.36546 5.51074L15.3342 10.1086Z" fill="#00E721"/>
<path d="M12.4937 14.4394V28.6463L25 21.4441V7.21973L12.4937 14.4394Z" fill="url(#paint7_linear_35_1230)"/>
<path d="M23.0142 16.1162V16.448L14.907 21.1287V20.8133L23.0142 16.1162Z" fill="#606060"/>
<path d="M23.0141 14.0752V14.3894L20.5505 15.8173V15.5018L23.0141 14.0752Z" fill="#606060"/>
<path d="M23.0392 15.4688V15.7842L18.3257 18.5055V18.1899L23.0392 15.4688Z" fill="#606060"/>
<path d="M23.0141 11.2529V11.5684L20.5505 13.0126V12.6795L23.0141 11.2529Z" fill="#606060"/>
<path d="M23.0141 12.6475V12.9793L17.7224 16.0335V15.7017L23.0141 12.6475Z" fill="#606060"/>
<path d="M23.0142 14.7715V15.0869L14.907 19.784V19.4522L23.0142 14.7715Z" fill="#00E721"/>
<path d="M20.0351 15.8008V16.1327L14.907 19.0864V18.7546L20.0351 15.8008Z" fill="#606060"/>
<path d="M23.0142 13.377V13.6924L14.907 18.3895V18.0577L23.0142 13.377Z" fill="#00E721"/>
<path d="M17.207 15.999V16.3308L14.8818 17.6594V17.3439L17.207 15.999Z" fill="#606060"/>
<path d="M23.0142 11.9492V12.2647L14.907 16.9618V16.63L23.0142 11.9492Z" fill="#606060"/>
<path d="M20.0101 12.9785V13.3104L14.907 16.2653V15.9335L20.0101 12.9785Z" fill="#00E721"/>
<path d="M23.0266 10.5557V10.8711L14.907 15.5682V15.2364L23.0266 10.5557Z" fill="#606060"/>
<path d="M17.9865 12.7969L18.0115 13.1287L14.8818 14.921V14.5892L17.9865 12.7969Z" fill="#606060"/>
<path d="M22.989 9.9248V10.2579L18.5269 12.8295V12.4977L22.989 9.9248Z" fill="#606060"/>
<path d="M23.1021 18.2236V18.5391L20.626 19.9657V19.6502L23.1021 18.2236Z" fill="#606060"/>
<path d="M23.102 19.6182V19.9337L17.8105 22.988V22.6725L23.102 19.6182Z" fill="#00E721"/>
<path d="M23.102 20.332V20.6638L14.9824 25.3446V25.0291L23.102 20.332Z" fill="#00E721"/>
<path d="M17.2951 22.9697V23.2852L14.9698 24.6301V24.3146L17.2951 22.9697Z" fill="#606060"/>
<path d="M23.102 18.9199V19.2355L14.9824 23.9325V23.6007L23.102 18.9199Z" fill="#606060"/>
<path d="M20.098 19.9502V20.2657L14.9824 23.2194V22.9052L20.098 19.9502Z" fill="#606060"/>
<path d="M23.102 17.5098V17.8416L14.9824 22.5223V22.2068L23.102 17.5098Z" fill="#00E721"/>
<path d="M18.0744 19.7676L18.087 20.0995L14.9698 21.8918V21.56L18.0744 19.7676Z" fill="#00E721"/>
<path d="M23.0643 16.8955V17.211L18.6024 19.7839V19.4684L23.0643 16.8955Z" fill="#00E721"/>
<path d="M1.89795 16.2148V16.5303L10.005 21.211L10.0301 20.8956L1.89795 16.2148Z" fill="#606060"/>
<path d="M1.89795 14.1582V14.4901L4.36145 15.9167L4.38661 15.5848L1.89795 14.1582Z" fill="#606060"/>
<path d="M1.89795 15.5518V15.8836L6.58621 18.5885V18.273L1.89795 15.5518Z" fill="#606060"/>
<path d="M1.91052 11.3359V11.6678L4.3866 13.0956V12.7625L1.91052 11.3359Z" fill="#606060"/>
<path d="M1.91053 12.7295L1.89795 13.0614L7.1895 16.1157V15.8001L1.91053 12.7295Z" fill="#606060"/>
<path d="M1.89795 14.8545V15.1863L10.005 19.8671V19.5516L1.89795 14.8545Z" fill="#00E721"/>
<path d="M4.90198 15.8994V16.2149L10.005 19.1686V18.8544L4.90198 15.8994Z" fill="#606060"/>
<path d="M1.89795 13.46V13.7918L10.0301 18.4726V18.157L1.89795 13.46Z" fill="#606060"/>
<path d="M7.71747 16.0996V16.4138L10.0427 17.7587V17.4269L7.71747 16.0996Z" fill="#606060"/>
<path d="M1.91052 12.0322V12.3653L10.0301 17.0448V16.7293L1.91052 12.0322Z" fill="#606060"/>
<path d="M4.90198 13.0781V13.3936L10.0301 16.3486V16.0331L4.90198 13.0781Z" fill="#00E721"/>
<path d="M1.91052 10.6387V10.9705L10.0301 15.6513V15.3358L1.91052 10.6387Z" fill="#00E721"/>
<path d="M6.9256 12.8955V13.211L10.0301 15.0034V14.6878L6.9256 12.8955Z" fill="#606060"/>
<path d="M1.9483 10.0254V10.3408L6.38509 12.9125V12.597L1.9483 10.0254Z" fill="#606060"/>
<path d="M1.82245 18.3066V18.6221L4.29868 20.065V19.7332L1.82245 18.3066Z" fill="#606060"/>
<path d="M1.82246 19.7012L1.80988 20.033L7.10158 23.0873V22.7555L1.82246 19.7012Z" fill="#00E721"/>
<path d="M1.80988 20.4307V20.7461L9.94221 25.4432V25.1114L1.80988 20.4307Z" fill="#606060"/>
<path d="M7.62939 23.0527V23.3845L9.9548 24.7294V24.3976L7.62939 23.0527Z" fill="#606060"/>
<path d="M1.82245 19.0039V19.3357L9.94221 24.0164V23.701L1.82245 19.0039Z" fill="#606060"/>
<path d="M4.8139 20.0322V20.3641L9.9422 23.319V22.9872L4.8139 20.0322Z" fill="#00E721"/>
<path d="M1.82245 17.6094V17.9248L9.94221 22.6219V22.2901L1.82245 17.6094Z" fill="#606060"/>
<path d="M6.83752 19.8672V20.1826L9.94221 21.975V21.6595L6.83752 19.8672Z" fill="#606060"/>
<path d="M1.86023 16.9785V17.3103L6.30975 19.8832V19.5514L1.86023 16.9785Z" fill="#00E721"/>
<defs>
<linearGradient id="paint0_linear_35_1230" x1="0" y1="23.3155" x2="25" y2="23.3155" gradientUnits="userSpaceOnUse">
<stop stop-color="#231F20"/>
<stop offset="1" stop-color="#6D6E71"/>
</linearGradient>
<linearGradient id="paint1_linear_35_1230" x1="0" y1="34.0333" x2="25" y2="34.0333" gradientUnits="userSpaceOnUse">
<stop stop-color="#231F20"/>
<stop offset="1" stop-color="#414042"/>
</linearGradient>
<linearGradient id="paint2_linear_35_1230" x1="1.83503" y1="23.3159" x2="23.1523" y2="23.3159" gradientUnits="userSpaceOnUse">
<stop stop-color="#6D6E71"/>
<stop offset="1" stop-color="#231F20"/>
</linearGradient>
<linearGradient id="paint3_linear_35_1230" x1="12.4937" y1="34.0333" x2="25" y2="34.0333" gradientUnits="userSpaceOnUse">
<stop stop-color="#231F20"/>
<stop offset="1" stop-color="#414042"/>
</linearGradient>
<linearGradient id="paint4_linear_35_1230" x1="0" y1="7.21717" x2="25" y2="7.21717" gradientUnits="userSpaceOnUse">
<stop stop-color="#231F20"/>
<stop offset="1" stop-color="#6D6E71"/>
</linearGradient>
<linearGradient id="paint5_linear_35_1230" x1="0" y1="17.9349" x2="25" y2="17.9349" gradientUnits="userSpaceOnUse">
<stop stop-color="#231F20"/>
<stop offset="1" stop-color="#414042"/>
</linearGradient>
<linearGradient id="paint6_linear_35_1230" x1="1.83503" y1="7.21762" x2="23.1523" y2="7.21762" gradientUnits="userSpaceOnUse">
<stop stop-color="#6D6E71"/>
<stop offset="1" stop-color="#231F20"/>
</linearGradient>
<linearGradient id="paint7_linear_35_1230" x1="12.4937" y1="17.9349" x2="25" y2="17.9349" gradientUnits="userSpaceOnUse">
<stop stop-color="#231F20"/>
<stop offset="1" stop-color="#414042"/>
</linearGradient>
</defs>
</svg>
