<svg width="24" height="24" viewBox="0 0 24 24" fill="none" xmlns="http://www.w3.org/2000/svg">
<path d="M3.36364 15.3333H20.6364V17H3.36364V15.3333ZM4.35682 11.9583L5.09091 10.725L5.825 11.9583L6.94773 11.3333L6.21364 10.1H7.68182V8.85H6.21364L6.94773 7.625L5.825 7L5.09091 8.225L4.35682 7L3.23409 7.625L3.96818 8.85H2.5V10.1H3.96818L3.23409 11.3333L4.35682 11.9583V11.9583ZM10.1432 11.3333L11.2659 11.9583L12 10.725L12.7341 11.9583L13.8568 11.3333L13.1227 10.1H14.5909V8.85H13.1227L13.8568 7.625L12.7341 7L12 8.225L11.2659 7L10.1432 7.625L10.8773 8.85H9.40909V10.1H10.8773L10.1432 11.3333V11.3333ZM21.5 8.85H20.0318L20.7659 7.625L19.6432 7L18.9091 8.225L18.175 7L17.0523 7.625L17.7864 8.85H16.3182V10.1H17.7864L17.0523 11.3333L18.175 11.9583L18.9091 10.725L19.6432 11.9583L20.7659 11.3333L20.0318 10.1H21.5V8.85Z" fill="white"/>
</svg>
