<svg width="24" height="24" viewBox="0 0 24 24" fill="none" xmlns="http://www.w3.org/2000/svg">
<path d="M15.4139 16.932C16.2519 16.932 16.9312 16.2527 16.9312 15.4147C16.9312 14.5768 16.2519 13.8975 15.4139 13.8975C14.576 13.8975 13.8967 14.5768 13.8967 15.4147C13.8967 16.2527 14.576 16.932 15.4139 16.932Z" fill="white"/>
<path d="M4.79314 6.31088C5.63109 6.31088 6.31039 5.63158 6.31039 4.79362C6.31039 3.95567 5.63109 3.27637 4.79314 3.27637C3.95518 3.27637 3.27588 3.95567 3.27588 4.79362C3.27588 5.63158 3.95518 6.31088 4.79314 6.31088Z" fill="white"/>
<path d="M19.9657 23.0007C19.3656 23.0007 18.7789 22.8227 18.2798 22.4893C17.7808 22.1558 17.3919 21.6819 17.1622 21.1274C16.9325 20.5729 16.8724 19.9628 16.9895 19.3742C17.1066 18.7855 17.3956 18.2448 17.82 17.8204C18.2444 17.396 18.7851 17.107 19.3737 16.9899C19.9624 16.8729 20.5725 16.933 21.127 17.1626C21.6815 17.3923 22.1554 17.7812 22.4888 18.2803C22.8223 18.7793 23.0002 19.366 23.0002 19.9662C22.9978 20.7702 22.6774 21.5407 22.1088 22.1092C21.5402 22.6778 20.7698 22.9983 19.9657 23.0007ZM19.9657 18.4489C19.6656 18.4489 19.3723 18.5379 19.1228 18.7046C18.8733 18.8713 18.6788 19.1083 18.564 19.3855C18.4491 19.6628 18.4191 19.9678 18.4776 20.2622C18.5362 20.5565 18.6807 20.8268 18.8929 21.039C19.1051 21.2512 19.3754 21.3957 19.6697 21.4543C19.964 21.5128 20.2691 21.4828 20.5464 21.3679C20.8236 21.2531 21.0606 21.0586 21.2273 20.8091C21.394 20.5596 21.483 20.2662 21.483 19.9662C21.4818 19.5641 21.3215 19.1789 21.0373 18.8946C20.753 18.6103 20.3678 18.4501 19.9657 18.4489Z" fill="white"/>
<path d="M22.2416 11.6218C22.2334 8.80752 21.1118 6.11084 19.1218 4.12083C17.1318 2.13082 14.4351 1.00921 11.6208 1.00101C9.80864 0.975158 8.02418 1.44751 6.46213 2.36654L7.29662 3.65621C7.88962 3.37119 8.49739 3.11795 9.11733 2.89758C7.86323 5.37216 7.16421 8.09059 7.06903 10.8632H2.51726C2.60226 9.61057 2.96506 8.39259 3.57934 7.29763L2.44139 6.31141C1.49745 7.92195 0.9999 9.75502 1 11.6218C0.999801 13.0166 1.27438 14.3978 1.80805 15.6865C2.34173 16.9751 3.12404 18.146 4.11032 19.1323C5.09659 20.1186 6.2675 20.9009 7.55616 21.4346C8.84483 21.9682 10.226 22.2428 11.6208 22.2426C12.9732 22.2554 14.3145 21.9974 15.5657 21.484L15.1105 20.0426C13.8667 20.5745 12.5158 20.8083 11.1656 20.7254C9.54782 18.2371 8.6547 15.3476 8.58629 12.3804H22.1657C22.2285 12.1327 22.254 11.877 22.2416 11.6218ZM9.19319 20.4219C7.68463 19.9697 6.30605 19.1634 5.17246 18.0702C3.66723 16.5299 2.73085 14.5234 2.51726 12.3804H7.06903C7.17342 15.1851 7.89891 17.9316 9.19319 20.4219ZM8.58629 10.8632C8.64663 7.90568 9.51216 5.02059 11.0898 2.51826H12.1518C13.7295 5.02059 14.595 7.90568 14.6553 10.8632H8.58629ZM16.1726 10.8632C16.1149 8.0518 15.3866 5.29486 14.0484 2.82172C15.8334 3.3362 17.4201 4.38048 18.5986 5.81638C19.7771 7.25229 20.4919 9.01217 20.6485 10.8632H16.1726Z" fill="white"/>
</svg>
