<svg width="6" height="4" viewBox="0 0 6 4" fill="none" xmlns="http://www.w3.org/2000/svg">
<path d="M5.08002 0.177135L2.995 2.5342L0.914978 0.177135C0.864978 0.121137 0.80499 0.0765651 0.73999 0.0462805C0.67499 0.0154244 0.604973 0 0.534973 0C0.464973 0 0.395017 0.0154244 0.330017 0.0462805C0.265017 0.0765651 0.205029 0.121137 0.155029 0.177135C0.105029 0.233705 0.069978 0.300556 0.039978 0.373696C0.014978 0.447408 0 0.526266 0 0.605692C0 0.685117 0.014978 0.763975 0.039978 0.837687C0.069978 0.910827 0.105029 0.977675 0.155029 1.03367L2.62 3.82215C2.83 4.05928 3.17 4.05928 3.38 3.82215L5.84497 1.03367C5.89497 0.977675 5.93002 0.910827 5.96002 0.837687C5.98502 0.763975 6 0.685117 6 0.605692C6 0.526266 5.98502 0.447408 5.96002 0.373696C5.93002 0.300556 5.89497 0.233705 5.84497 0.177135C5.63497 -0.0537138 5.29002 -0.0594279 5.08002 0.177135Z" fill="white"/>
</svg>
