<svg width="18" height="18" viewBox="0 0 18 18" fill="none" xmlns="http://www.w3.org/2000/svg">
<path fill-rule="evenodd" clip-rule="evenodd" d="M17 9.00071C17 11.1222 16.1579 13.1562 14.6571 14.6571C13.1562 16.1579 11.1222 17 9.00071 17C6.87781 17 4.8438 16.1579 3.34296 14.6571C1.84353 13.1562 1 11.1222 1 9.00071C1 6.87781 1.84353 4.8438 3.34296 3.34296C4.8438 1.84353 6.87781 1 9.00071 1C11.1222 1 13.1562 1.84353 14.6571 3.34296C16.1579 4.8438 17 6.87781 17 9.00071ZM7.57039 7.03299H6.25009C6.22047 5.14707 7.68042 4.49959 9.00635 4.49959C10.4028 4.49959 11.6794 5.23028 11.6794 6.73958C11.6794 7.82007 11.0446 8.33354 10.4353 8.79761C9.69753 9.3562 9.42528 9.56493 9.42528 10.2829V10.6384H8.11769L8.11063 10.1757C8.07254 9.24757 8.60574 8.67771 9.27858 8.18824C9.86819 7.74391 10.2434 7.45191 10.2434 6.81715C10.2434 5.99197 9.61572 5.6492 8.92878 5.6492C8.02884 5.6492 7.57181 6.25154 7.57181 7.03299H7.57039ZM8.82159 13.4764C8.23762 13.4764 7.81162 13.0829 7.81162 12.5497C7.81162 11.9967 8.23762 11.6088 8.82159 11.6088C9.43096 11.6088 9.84986 11.9967 9.84986 12.5497C9.84986 13.0829 9.42954 13.4764 8.82159 13.4764Z" fill="white"/>
</svg>
