<svg width="18" height="18" viewBox="0 0 18 18" fill="none" xmlns="http://www.w3.org/2000/svg">
<path fill-rule="evenodd" clip-rule="evenodd" d="M9 0C4.02944 0 0 4.02944 0 9C0 13.9706 4.02944 18 9 18C13.9706 18 18 13.9706 18 9C18 4.02944 13.9706 0 9 0ZM7.62479 6.86364V14.5H10.3691V6.86364H7.62479ZM8.04241 5.70028C8.30756 5.94555 8.62574 6.06818 8.99695 6.06818C9.37148 6.06818 9.68966 5.94555 9.9515 5.70028C10.2166 5.45502 10.3492 5.16004 10.3492 4.81534C10.3492 4.47064 10.2166 4.17566 9.9515 3.9304C9.68966 3.68513 9.37148 3.5625 8.99695 3.5625C8.62574 3.5625 8.30756 3.68513 8.04241 3.9304C7.77725 4.17566 7.64468 4.47064 7.64468 4.81534C7.64468 5.16004 7.77725 5.45502 8.04241 5.70028Z" fill="#717171"/>
</svg>
