<svg width="24" height="33" viewBox="0 0 24 33" fill="none" xmlns="http://www.w3.org/2000/svg">
<path d="M6.17816 32.3751L6.17818 32.375C5.84195 32.2393 5.55794 31.9983 5.37476 31.6858C5.1913 31.3727 5.12087 31.0077 5.17722 30.6492L5.17747 30.6476L7.19044 18.1073H2.1941C1.94626 18.1127 1.69971 18.0641 1.47288 17.9644C1.24386 17.8637 1.04005 17.7132 0.878263 17.5228M6.17816 32.3751L0.878261 17.5228C0.878262 17.5228 0.878262 17.5228 0.878263 17.5228M6.17816 32.3751L6.18423 32.3774M6.17816 32.3751L6.18423 32.3774M0.878263 17.5228C0.716392 17.3323 0.60107 17.1071 0.542918 16.8641C0.484871 16.6215 0.485721 16.3692 0.545375 16.127C0.545502 16.1265 0.545629 16.126 0.545756 16.1255L4.0164 1.73565M0.878263 17.5228L4.0164 1.73565M6.18423 32.3774C6.38301 32.4547 6.59433 32.4961 6.80777 32.4999C6.81696 32.5001 6.82617 32.5 6.83536 32.4997M6.18423 32.3774L6.83536 32.4997M16.9924 10.4646L18.8515 2.46526L16.9924 10.4646ZM16.9924 10.4646L21.8582 10.4646C21.8584 10.4646 21.8586 10.4646 21.8588 10.4646H21.8592H16.9924ZM4.017 1.73317L4.01701 1.73317C4.10685 1.36884 4.32398 1.04998 4.62614 0.82737C4.92602 0.606437 5.29278 0.492379 5.66542 0.500396H17.23H17.2307V1.0004C17.4036 0.999833 17.5744 1.03634 17.7306 1.10723L4.017 1.73317ZM4.017 1.73317L4.0164 1.73565M4.017 1.73317L4.0164 1.73565M6.83536 32.4997C7.09187 32.4901 7.34342 32.4228 7.56973 32.3022C7.79129 32.1841 7.98342 32.0177 8.12992 31.8144L6.83536 32.4997Z" stroke="url(#paint0_linear_35_1371)" stroke-linejoin="round"/>
<path d="M6.36542 31.9114C6.12862 31.8158 5.93185 31.6474 5.80613 31.4329C5.68042 31.2184 5.63293 30.97 5.67115 30.7268L7.7771 17.6073H2.18824C2.01105 17.6119 1.83514 17.5774 1.67408 17.5066C1.51301 17.4359 1.3711 17.3306 1.25929 17.199C1.14747 17.0674 1.06875 16.913 1.02919 16.7477C0.989628 16.5824 0.99029 16.4106 1.03112 16.2456L4.50247 1.85288C4.56355 1.60519 4.71196 1.38519 4.92271 1.22992C5.13346 1.07465 5.39369 0.993594 5.65958 1.0004H17.2307C17.4036 0.999833 17.5744 1.03634 17.7306 1.10723C17.8868 1.17811 18.0244 1.28158 18.1333 1.41003C18.2437 1.53993 18.3219 1.69211 18.362 1.85512C18.4021 2.01812 18.403 2.1877 18.3647 2.35109L16.3629 10.9646H21.8592C22.0761 10.9641 22.2887 11.022 22.4728 11.1317C22.6569 11.2413 22.8052 11.3982 22.9006 11.5845C22.9835 11.7634 23.0154 11.9601 22.9931 12.1545C22.9707 12.349 22.8949 12.5344 22.7733 12.6917L7.73082 31.5129C7.62915 31.6571 7.49341 31.7763 7.33459 31.8609C7.17577 31.9456 6.99835 31.9932 6.8167 32C6.66186 31.9972 6.50889 31.9672 6.36542 31.9114Z" fill="url(#paint1_radial_35_1371)"/>
<defs>
<linearGradient id="paint0_linear_35_1371" x1="12" y1="1" x2="12" y2="32" gradientUnits="userSpaceOnUse">
<stop stop-color="#363334"/>
<stop offset="1" stop-color="#414042"/>
</linearGradient>
<radialGradient id="paint1_radial_35_1371" cx="0" cy="0" r="1" gradientUnits="userSpaceOnUse" gradientTransform="translate(11 12) rotate(87.1376) scale(20.025 14.2113)">
<stop offset="0.081597" stop-color="#87FF9D"/>
<stop offset="0.66493" stop-color="#12FF3C"/>
</radialGradient>
</defs>
</svg>
