<svg width="18" height="18" viewBox="0 0 18 18" fill="none" xmlns="http://www.w3.org/2000/svg">
<path fill-rule="evenodd" clip-rule="evenodd" d="M1.88892 8.42502C1.88892 7.38236 2.82579 6.53613 3.98121 6.53613H13.7453C14.9008 6.53613 15.8376 7.38236 15.8376 8.42502V14.7217C15.8376 15.7644 14.9008 16.6106 13.7453 16.6106H3.98121C2.82579 16.6106 1.88892 15.7644 1.88892 14.7217V8.42502ZM9.85015 10.0535C9.58745 9.81757 9.23292 9.68504 8.86328 9.68504C8.49363 9.68504 8.13911 9.81757 7.8764 10.0535C7.61487 10.2895 7.46839 10.6103 7.46839 10.9439C7.46839 11.4089 7.7497 11.8076 8.16583 12.0261V13.4628C8.16583 13.8092 8.47852 14.0917 8.86328 14.0917C9.24803 14.0917 9.56072 13.8092 9.56072 13.4628V12.0261C9.97686 11.8076 10.2582 11.4089 10.2582 10.9439C10.2582 10.6103 10.1117 10.2895 9.85015 10.0535Z" fill="#00E721"/>
<path d="M8.86342 1.5C7.32209 1.5 5.98883 2.07772 5.15772 3.01461C4.32894 3.95266 3.98135 5.16853 3.98135 6.47738V8.42555H6.07368V6.47738C6.07368 5.48354 6.34451 4.70239 6.79319 4.19559C7.24071 3.68879 7.84633 3.38889 8.86342 3.38889C9.884 3.38889 10.4873 3.67252 10.9336 4.17583C11.38 4.67915 11.6532 5.47307 11.6532 6.47738V7.16667H13.7455V6.47738C13.7455 5.16039 13.3782 3.93174 12.5471 2.99485C11.7159 2.05912 10.4024 1.5 8.86342 1.5Z" fill="#00E721"/>
</svg>
