<svg width="25" height="44" viewBox="0 0 25 44" fill="none" xmlns="http://www.w3.org/2000/svg">
<path d="M3.12524 5.4099L12.5007 0L21.8749 5.4099L12.5007 10.8198L3.12524 5.4099Z" fill="url(#paint0_linear_37_2221)"/>
<path d="M12.5006 2.75635L17.1137 5.40974L12.5006 8.07772L7.88623 5.40974L12.5006 2.75635Z" fill="url(#paint1_linear_37_2221)"/>
<path d="M12.5005 43.2938L21.8748 37.8839V5.40991L12.5005 10.8198V43.2938Z" fill="url(#paint2_linear_37_2221)"/>
<path d="M3.12524 37.8839L12.5007 43.2938V10.8198L3.12524 5.40991V37.8839Z" fill="url(#paint3_linear_37_2221)"/>
<path d="M0 18.7948L12.5006 26.0031L25 18.7948V17.7336L12.5006 24.942L0 17.7336V18.7948Z" fill="url(#paint4_linear_37_2221)"/>
<path d="M23.335 16.8784L21.8749 16.112V17.7031L12.5006 23.1433L3.12519 17.7334V16.0974L1.66629 16.8784L0 17.7334L12.5006 24.9417L25 17.7334L23.335 16.8784Z" fill="url(#paint5_linear_37_2221)"/>
<path d="M12.5006 3.61157L15.6258 5.40999L12.5006 7.2084L9.37549 5.40999L12.5006 3.61157Z" fill="url(#paint6_linear_37_2221)"/>
<path d="M0 15.1092L12.5006 22.3321L25 15.1092V14.0481L12.5006 21.2565L0 14.0481V15.1092Z" fill="url(#paint7_linear_37_2221)"/>
<path d="M23.335 13.2074L21.8749 12.4264V14.0187L12.5006 19.4577L3.12519 14.0478V12.4119L1.66629 13.2074L0 14.0478L12.5006 21.2562L25 14.0478L23.335 13.2074Z" fill="url(#paint8_linear_37_2221)"/>
<path d="M0 11.4237L12.5006 18.6466L25 11.4237V10.3625L12.5006 17.5709L0 10.3625V11.4237Z" fill="url(#paint9_linear_37_2221)"/>
<path d="M23.335 9.52235L21.8749 8.74139V10.3482L12.5006 15.7726L3.12519 10.3628V8.72681L1.66629 9.52235L0 10.3628L12.5006 17.5711L25 10.3628L23.335 9.52235Z" fill="url(#paint10_linear_37_2221)"/>
<defs>
<linearGradient id="paint0_linear_37_2221" x1="3.12767" y1="5.41111" x2="21.8725" y2="5.41111" gradientUnits="userSpaceOnUse">
<stop stop-color="#6D6E71"/>
<stop offset="1" stop-color="#231F20"/>
</linearGradient>
<linearGradient id="paint1_linear_37_2221" x1="7.89229" y1="5.41097" x2="17.1077" y2="5.41097" gradientUnits="userSpaceOnUse">
<stop stop-color="#6D6E71"/>
<stop offset="1" stop-color="#231F20"/>
</linearGradient>
<linearGradient id="paint2_linear_37_2221" x1="10.3079" y1="8.48906" x2="21.8287" y2="46.0831" gradientUnits="userSpaceOnUse">
<stop offset="0.300347" stop-color="#1D1D1D"/>
<stop offset="1" stop-color="#414042"/>
</linearGradient>
<linearGradient id="paint3_linear_37_2221" x1="3.12767" y1="24.35" x2="12.4994" y2="24.35" gradientUnits="userSpaceOnUse">
<stop stop-color="#414042"/>
<stop offset="1" stop-color="#231F20"/>
</linearGradient>
<linearGradient id="paint4_linear_37_2221" x1="0.00363813" y1="21.8678" x2="24.9964" y2="21.8678" gradientUnits="userSpaceOnUse">
<stop stop-color="#00E721"/>
<stop offset="1" stop-color="#008D14"/>
</linearGradient>
<linearGradient id="paint5_linear_37_2221" x1="16.9779" y1="18.7969" x2="-1.21271" y2="17.5842" gradientUnits="userSpaceOnUse">
<stop stop-color="#00E721"/>
<stop offset="1" stop-color="#4BFF64"/>
</linearGradient>
<linearGradient id="paint6_linear_37_2221" x1="9.37549" y1="5.4112" x2="15.6234" y2="5.4112" gradientUnits="userSpaceOnUse">
<stop offset="0.175347" stop-color="#A4FFB4"/>
<stop offset="1" stop-color="#00E721"/>
</linearGradient>
<linearGradient id="paint7_linear_37_2221" x1="0.00363813" y1="18.1859" x2="24.9964" y2="18.1859" gradientUnits="userSpaceOnUse">
<stop stop-color="#00E721"/>
<stop offset="1" stop-color="#008D14"/>
</linearGradient>
<linearGradient id="paint8_linear_37_2221" x1="24.2542" y1="13.946" x2="0.606353" y2="14.5523" gradientUnits="userSpaceOnUse">
<stop stop-color="#00E721"/>
<stop offset="0.982276" stop-color="#4BFF64"/>
</linearGradient>
<linearGradient id="paint9_linear_37_2221" x1="0.00363813" y1="14.5039" x2="24.9964" y2="14.5039" gradientUnits="userSpaceOnUse">
<stop stop-color="#00E721"/>
<stop offset="1" stop-color="#008D14"/>
</linearGradient>
<linearGradient id="paint10_linear_37_2221" x1="12.5006" y1="8.72681" x2="-1.21271" y2="8.48912" gradientUnits="userSpaceOnUse">
<stop stop-color="#00E721"/>
<stop offset="1" stop-color="#4BFF64"/>
</linearGradient>
</defs>
</svg>
