<svg width="14" height="35" viewBox="0 0 14 35" fill="none" xmlns="http://www.w3.org/2000/svg">
<g filter="url(#filter0_d_146_4)">
<path d="M8.4082 10.5938L10.7871 12.4805L9.50977 13.5586L7.17188 11.6719L8.4082 10.5938ZM10.8867 7.56445V7.91016C10.8867 8.5625 10.7949 9.14844 10.6113 9.66797C10.4316 10.1836 10.1738 10.625 9.83789 10.9922C9.50586 11.3555 9.11328 11.6348 8.66016 11.8301C8.20703 12.0215 7.70703 12.1172 7.16016 12.1172C6.60938 12.1172 6.10547 12.0215 5.64844 11.8301C5.19531 11.6348 4.80078 11.3555 4.46484 10.9922C4.13281 10.625 3.875 10.1836 3.69141 9.66797C3.51172 9.14844 3.42188 8.5625 3.42188 7.91016V7.56445C3.42188 6.91211 3.51172 6.32617 3.69141 5.80664C3.875 5.28711 4.13086 4.8457 4.45898 4.48242C4.79102 4.11523 5.18359 3.83594 5.63672 3.64453C6.09375 3.44922 6.59766 3.35156 7.14844 3.35156C7.69531 3.35156 8.19531 3.44922 8.64844 3.64453C9.10547 3.83594 9.5 4.11523 9.83203 4.48242C10.168 4.8457 10.4277 5.28711 10.6113 5.80664C10.7949 6.32617 10.8867 6.91211 10.8867 7.56445ZM8.79492 7.91016V7.55273C8.79492 7.13086 8.75781 6.75977 8.68359 6.43945C8.61328 6.11523 8.50781 5.84375 8.36719 5.625C8.22656 5.40625 8.05273 5.24219 7.8457 5.13281C7.64258 5.01953 7.41016 4.96289 7.14844 4.96289C6.875 4.96289 6.63672 5.01953 6.43359 5.13281C6.23047 5.24219 6.06055 5.40625 5.92383 5.625C5.78711 5.84375 5.68359 6.11523 5.61328 6.43945C5.54688 6.75977 5.51367 7.13086 5.51367 7.55273V7.91016C5.51367 8.32812 5.54688 8.69922 5.61328 9.02344C5.68359 9.34375 5.78711 9.61523 5.92383 9.83789C6.06445 10.0605 6.23633 10.2285 6.43945 10.3418C6.64648 10.4551 6.88672 10.5117 7.16016 10.5117C7.42188 10.5117 7.6543 10.4551 7.85742 10.3418C8.06055 10.2285 8.23047 10.0605 8.36719 9.83789C8.50781 9.61523 8.61328 9.34375 8.68359 9.02344C8.75781 8.69922 8.79492 8.32812 8.79492 7.91016ZM8.04492 19.7324C8.04492 19.5996 8.02539 19.4805 7.98633 19.375C7.94727 19.2656 7.875 19.1641 7.76953 19.0703C7.66406 18.9766 7.51172 18.8828 7.3125 18.7891C7.11719 18.6914 6.85938 18.5898 6.53906 18.4844C6.16406 18.3594 5.80273 18.2188 5.45508 18.0625C5.10742 17.9023 4.79688 17.7168 4.52344 17.5059C4.25 17.291 4.0332 17.041 3.87305 16.7559C3.71289 16.4668 3.63281 16.1309 3.63281 15.748C3.63281 15.3809 3.71484 15.0508 3.87891 14.7578C4.04297 14.4609 4.27148 14.209 4.56445 14.002C4.86133 13.791 5.20898 13.6309 5.60742 13.5215C6.00586 13.4082 6.44141 13.3516 6.91406 13.3516C7.53906 13.3516 8.08984 13.4609 8.56641 13.6797C9.04688 13.8945 9.42188 14.2012 9.69141 14.5996C9.96484 14.9941 10.1016 15.4609 10.1016 16H8.05664C8.05664 15.7852 8.01172 15.5957 7.92188 15.4316C7.83594 15.2676 7.70508 15.1387 7.5293 15.0449C7.35352 14.9512 7.13281 14.9043 6.86719 14.9043C6.60938 14.9043 6.39258 14.9434 6.2168 15.0215C6.04102 15.0996 5.9082 15.2051 5.81836 15.3379C5.72852 15.4668 5.68359 15.6094 5.68359 15.7656C5.68359 15.8945 5.71875 16.0117 5.78906 16.1172C5.86328 16.2188 5.9668 16.3145 6.09961 16.4043C6.23633 16.4941 6.40039 16.5801 6.5918 16.6621C6.78711 16.7441 7.00586 16.8242 7.24805 16.9023C7.70117 17.0469 8.10352 17.209 8.45508 17.3887C8.81055 17.5645 9.10938 17.7656 9.35156 17.9922C9.59766 18.2148 9.7832 18.4688 9.9082 18.7539C10.0371 19.0391 10.1016 19.3613 10.1016 19.7207C10.1016 20.1035 10.0273 20.4434 9.87891 20.7402C9.73047 21.0371 9.51758 21.2891 9.24023 21.4961C8.96289 21.6992 8.63086 21.8535 8.24414 21.959C7.85742 22.0645 7.42578 22.1172 6.94922 22.1172C6.51172 22.1172 6.08008 22.0625 5.6543 21.9531C5.23242 21.8398 4.84961 21.668 4.50586 21.4375C4.16211 21.2031 3.88672 20.9043 3.67969 20.541C3.47656 20.1738 3.375 19.7383 3.375 19.2344H5.4375C5.4375 19.4844 5.4707 19.6953 5.53711 19.8672C5.60352 20.0391 5.70117 20.1777 5.83008 20.2832C5.95898 20.3848 6.11719 20.459 6.30469 20.5059C6.49219 20.5488 6.70703 20.5703 6.94922 20.5703C7.21094 20.5703 7.42188 20.5332 7.58203 20.459C7.74219 20.3809 7.85938 20.2793 7.93359 20.1543C8.00781 20.0254 8.04492 19.8848 8.04492 19.7324ZM3.65039 23.4688H7.00781C7.66406 23.4688 8.23438 23.5664 8.71875 23.7617C9.20312 23.957 9.57617 24.2461 9.83789 24.6289C10.1035 25.0117 10.2363 25.4844 10.2363 26.0469C10.2363 26.5352 10.1602 26.9434 10.0078 27.2715C9.85547 27.5996 9.64258 27.8711 9.36914 28.0859C9.09961 28.2969 8.78516 28.4707 8.42578 28.6074L7.75195 28.9883H4.93359L4.92188 27.4004H7.00781C7.26953 27.4004 7.48633 27.3535 7.6582 27.2598C7.83008 27.166 7.95898 27.0332 8.04492 26.8613C8.13477 26.6855 8.17969 26.4766 8.17969 26.2344C8.17969 25.9883 8.13477 25.7773 8.04492 25.6016C7.95508 25.4258 7.82227 25.291 7.64648 25.1973C7.47461 25.1035 7.26172 25.0566 7.00781 25.0566H5.70703V32H3.65039V23.4688ZM8.32031 32L6.43359 28.2266L8.61328 28.2148L10.5234 31.9121V32H8.32031Z" fill="#0033F4"/>
</g>
<defs>
<filter id="filter0_d_146_4" x="0.375" y="0.351562" width="13.5117" height="34.6484" filterUnits="userSpaceOnUse" color-interpolation-filters="sRGB">
<feFlood flood-opacity="0" result="BackgroundImageFix"/>
<feColorMatrix in="SourceAlpha" type="matrix" values="0 0 0 0 0 0 0 0 0 0 0 0 0 0 0 0 0 0 127 0" result="hardAlpha"/>
<feOffset/>
<feGaussianBlur stdDeviation="1.5"/>
<feComposite in2="hardAlpha" operator="out"/>
<feColorMatrix type="matrix" values="0 0 0 0 0 0 0 0 0 0.2 0 0 0 0 0.956863 0 0 0 0.6 0"/>
<feBlend mode="normal" in2="BackgroundImageFix" result="effect1_dropShadow_146_4"/>
<feBlend mode="normal" in="SourceGraphic" in2="effect1_dropShadow_146_4" result="shape"/>
</filter>
</defs>
</svg>
