<svg width="16" height="16" viewBox="0 0 16 16" fill="none" xmlns="http://www.w3.org/2000/svg">
<path d="M7.08241 2.06964C7.3168 2.3262 7.64726 2.48034 7.9999 2.48034C8.35255 2.48034 8.68304 2.33359 8.91743 2.06964L9.51184 1.40869C9.86448 1.02015 10.423 0.894511 10.9066 1.093C11.3912 1.2915 11.6921 1.77612 11.671 2.29663L11.6267 3.18564C11.6119 3.53723 11.7365 3.87509 11.9856 4.12532C12.2359 4.37449 12.5737 4.50646 12.9253 4.48429L13.8143 4.441C14.3359 4.41144 14.8194 4.71973 15.0179 5.20435C15.2164 5.68897 15.0918 6.24644 14.7022 6.59908L14.0413 7.19351C13.7847 7.4279 13.6306 7.75837 13.6306 8.11102C13.6306 8.46366 13.7773 8.79413 14.0413 9.02852L14.7022 9.62295C15.0918 9.97559 15.2164 10.5341 15.0179 11.0177C14.8194 11.5023 14.3359 11.8032 13.8143 11.7821L12.9253 11.7377C12.5737 11.723 12.2359 11.8475 11.9856 12.0978C11.7365 12.3469 11.6045 12.6848 11.6267 13.0364L11.671 13.9254C11.6995 14.4459 11.3912 14.9305 10.9066 15.129C10.423 15.3275 9.86448 15.2029 9.51184 14.8133L8.91743 14.1524C8.68304 13.8958 8.35255 13.7417 7.9999 13.7417C7.64726 13.7417 7.3168 13.8884 7.08241 14.1524L6.488 14.8133C6.13536 15.2029 5.57787 15.3275 5.09325 15.129C4.60863 14.9305 4.30773 14.4459 4.32991 13.9254L4.37318 13.0364C4.38796 12.6848 4.26338 12.3469 4.0142 12.0978C3.76398 11.8475 3.42613 11.7156 3.07455 11.7377L2.18554 11.7821C1.66502 11.8106 1.18042 11.5023 0.981924 11.0177C0.783431 10.5341 0.909053 9.97559 1.29759 9.62295L1.95854 9.02852C2.2151 8.79413 2.36926 8.46366 2.36926 8.11102C2.36926 7.75837 2.2225 7.4279 1.95854 7.19351L1.29759 6.59908C0.909053 6.24644 0.783431 5.68897 0.981924 5.20435C1.18042 4.71973 1.66502 4.41883 2.18554 4.441L3.07455 4.48429C3.42613 4.49907 3.76398 4.37449 4.0142 4.12532C4.26338 3.87509 4.39535 3.53723 4.37318 3.18564L4.32991 2.29663C4.30034 1.77612 4.60863 1.2915 5.09325 1.093C5.57787 0.894511 6.13536 1.02015 6.488 1.40869L7.08241 2.06964Z" fill="white"/>
<path d="M7.99984 10.9519C9.56878 10.9519 10.841 9.67967 10.841 8.11073C10.841 6.54178 9.56878 5.26953 7.99984 5.26953C6.4309 5.26953 5.15866 6.54178 5.15866 8.11073C5.15866 9.67967 6.4309 10.9519 7.99984 10.9519Z" fill="#1B1B1B"/>
</svg>
