<svg width="20" height="20" viewBox="0 0 20 20" fill="none" xmlns="http://www.w3.org/2000/svg">
<path d="M15.4681 16.935L8.39714 9.991L15.4681 3.04601C15.6371 2.88101 15.7701 2.684 15.8621 2.467C15.9531 2.251 16.0001 2.019 16.0001 1.784C16.0001 1.55 15.9531 1.31801 15.8621 1.10201C15.7701 0.885005 15.6371 0.687995 15.4681 0.522995C15.2991 0.356995 15.0991 0.226002 14.8781 0.136002C14.6581 0.0460016 14.4222 0 14.1832 0C13.9442 0 13.7081 0.0460016 13.4881 0.136002C13.2671 0.226002 13.0671 0.356995 12.8981 0.522995L4.53313 8.73801C3.82213 9.43601 3.82213 10.563 4.53313 11.261L12.8981 19.477C13.0671 19.643 13.2671 19.774 13.4871 19.864C13.7081 19.954 13.9442 20 14.1832 20C14.4222 20 14.6581 19.954 14.8781 19.864C15.0991 19.774 15.2991 19.643 15.4681 19.477C16.1601 18.779 16.1791 17.633 15.4681 16.935Z" fill="white"/>
</svg>
