<svg width="13" height="13" viewBox="0 0 13 13" fill="none" xmlns="http://www.w3.org/2000/svg">
<path d="M0.705994 3.53036H9.883L8.75299 4.37734C8.67899 4.43334 8.617 4.5033 8.569 4.5823C8.522 4.6623 8.491 4.75131 8.478 4.84231C8.465 4.93431 8.47001 5.02833 8.49301 5.11733C8.51601 5.20733 8.556 5.29236 8.612 5.36636C8.678 5.45336 8.76299 5.52531 8.86099 5.57431C8.95899 5.6233 9.067 5.64834 9.177 5.64834C9.329 5.64834 9.47801 5.59935 9.60001 5.50735L12.424 3.38931C12.51 3.32331 12.58 3.23832 12.628 3.14132C12.677 3.04432 12.702 2.93733 12.702 2.82833C12.702 2.71933 12.677 2.61235 12.628 2.51535C12.58 2.41834 12.51 2.33336 12.424 2.26736L9.69901 0.149317C9.55101 0.0343172 9.36401 -0.0176648 9.17801 0.00533525C8.99201 0.0293352 8.822 0.125341 8.707 0.273341C8.592 0.420341 8.54 0.608337 8.564 0.794337C8.587 0.980337 8.68299 1.14931 8.83099 1.26431L9.939 2.11935H0.705994C0.518994 2.11935 0.339001 2.19334 0.207001 2.32534C0.0740007 2.45834 0 2.63731 0 2.82431C0 3.01231 0.0740007 3.19131 0.207001 3.32431C0.339001 3.45631 0.518994 3.53036 0.705994 3.53036ZM12 8.47231H2.82401L3.953 7.62533C4.103 7.51233 4.202 7.3453 4.228 7.1603C4.255 6.9743 4.20699 6.78632 4.09399 6.63632C3.98199 6.48732 3.815 6.38835 3.629 6.36135C3.444 6.33535 3.25599 6.38333 3.10599 6.49533L0.282013 8.61331C0.196013 8.67931 0.126003 8.76435 0.0780029 8.86135C0.0300029 8.95835 0.00500488 9.06534 0.00500488 9.17434C0.00500488 9.28334 0.0300029 9.39033 0.0780029 9.48733C0.126003 9.58433 0.196013 9.66932 0.282013 9.73532L3.00699 11.8534C3.12999 11.9494 3.28199 12.0013 3.43799 12.0013C3.54599 12.0013 3.65199 11.9763 3.74899 11.9283C3.84499 11.8813 3.93 11.8113 3.995 11.7263C4.10999 11.5793 4.16201 11.3923 4.13901 11.2073C4.11701 11.0223 4.022 10.8533 3.875 10.7383L2.767 9.88333H12C12.188 9.88333 12.367 9.80933 12.499 9.67733C12.632 9.54433 12.706 9.36531 12.706 9.17831C12.706 8.99031 12.632 8.81131 12.499 8.67831C12.367 8.54631 12.188 8.47231 12 8.47231Z" fill="#00E721"/>
</svg>
