<svg width="24" height="24" viewBox="0 0 24 24" fill="none" xmlns="http://www.w3.org/2000/svg">
<path d="M5.625 3.5C5.061 3.5 4.52101 3.72401 4.12201 4.12201C3.72401 4.52101 3.5 5.061 3.5 5.625V18.375C3.5 18.939 3.72401 19.479 4.12201 19.878C4.52101 20.276 5.061 20.5 5.625 20.5H18.375C18.939 20.5 19.479 20.276 19.878 19.878C20.276 19.479 20.5 18.939 20.5 18.375V5.625C20.5 5.061 20.276 4.52101 19.878 4.12201C19.479 3.72401 18.939 3.5 18.375 3.5H5.625ZM6.80603 14.597C6.80603 14.409 6.88 14.229 7.013 14.096C7.146 13.964 7.32598 13.889 7.51398 13.889H10.819C11.007 13.889 11.187 13.964 11.32 14.096C11.453 14.229 11.528 14.409 11.528 14.597C11.528 14.785 11.453 14.965 11.32 15.098C11.187 15.231 11.007 15.306 10.819 15.306H7.51398C7.32598 15.306 7.146 15.231 7.013 15.098C6.88 14.965 6.80603 14.785 6.80603 14.597ZM7.51398 8.694H10.819C11.007 8.694 11.187 8.76901 11.32 8.90201C11.453 9.03501 11.528 9.21501 11.528 9.40302C11.528 9.59102 11.453 9.77099 11.32 9.90399C11.187 10.036 11.007 10.111 10.819 10.111H7.51398C7.32598 10.111 7.146 10.036 7.013 9.90399C6.88 9.77099 6.80603 9.59102 6.80603 9.40302C6.80603 9.21501 6.88 9.03501 7.013 8.90201C7.146 8.76901 7.32598 8.694 7.51398 8.694ZM17.459 7.95801C17.592 8.09101 17.666 8.27101 17.666 8.45801C17.666 8.64601 17.592 8.82601 17.459 8.95901L15.57 10.848C15.437 10.98 15.257 11.055 15.069 11.055C14.882 11.055 14.702 10.98 14.569 10.848L13.624 9.90302C13.499 9.76902 13.431 9.59099 13.434 9.40799C13.438 9.22399 13.512 9.04901 13.642 8.92001C13.772 8.79001 13.947 8.71501 14.13 8.71201C14.314 8.70901 14.491 8.77701 14.626 8.90201L15.069 9.34601L16.458 7.95801C16.591 7.82501 16.771 7.75101 16.958 7.75101C17.146 7.75101 17.326 7.82501 17.459 7.95801ZM17.459 14.153L15.57 16.042C15.437 16.175 15.257 16.249 15.069 16.249C14.882 16.249 14.702 16.175 14.569 16.042L13.624 15.098C13.555 15.033 13.499 14.955 13.46 14.868C13.422 14.781 13.401 14.687 13.399 14.592C13.397 14.497 13.415 14.402 13.451 14.314C13.486 14.226 13.539 14.146 13.606 14.079C13.674 14.011 13.754 13.958 13.842 13.923C13.93 13.887 14.025 13.87 14.12 13.871C14.215 13.873 14.309 13.894 14.396 13.933C14.483 13.971 14.561 14.027 14.626 14.097L15.069 14.541L16.458 13.152C16.523 13.083 16.601 13.027 16.688 12.988C16.775 12.949 16.868 12.929 16.964 12.927C17.059 12.925 17.153 12.943 17.241 12.978C17.329 13.014 17.41 13.067 17.477 13.134C17.544 13.202 17.597 13.282 17.633 13.37C17.668 13.458 17.686 13.552 17.684 13.648C17.683 13.743 17.662 13.837 17.623 13.923C17.584 14.01 17.528 14.088 17.459 14.153Z" fill="white"/>
</svg>
